<svg xmlns="http://www.w3.org/2000/svg" width="30" height="30" viewBox="0 0 30 30"><defs><style>.a{fill:#bebebe;}</style></defs><path class="a" d="M117.324,106.666H133.9a2.763,2.763,0,0,1,2.763,2.763v16.579a2.763,2.763,0,0,1-2.763,2.763H117.324a2.763,2.763,0,0,1-2.763-2.763V109.429a2.763,2.763,0,0,1,2.763-2.763Zm0,2.368a.4.4,0,0,0-.395.395v16.579a.4.4,0,0,0,.395.395H133.9a.4.4,0,0,0,.395-.395V109.429a.4.4,0,0,0-.395-.395H117.324ZM126.4,131.14a1.184,1.184,0,0,1,2.368,0V133.9a2.763,2.763,0,0,1-2.763,2.763H109.429a2.763,2.763,0,0,1-2.763-2.763V117.324a2.763,2.763,0,0,1,2.763-2.763h2.763a1.184,1.184,0,0,1,0,2.368h-2.763a.4.4,0,0,0-.395.395V133.9a.4.4,0,0,0,.395.395h16.579a.4.4,0,0,0,.395-.395V131.14Z" transform="translate(136.666 136.666) rotate(180)"/></svg>